<?xml version="1.0" standalone="no"?><!DOCTYPE svg PUBLIC "-//W3C//DTD SVG 1.1//EN" "http://www.w3.org/Graphics/SVG/1.1/DTD/svg11.dtd"><svg t="1542184935162" class="icon" style="" viewBox="0 0 1024 1024" version="1.1" xmlns="http://www.w3.org/2000/svg" p-id="2589" xmlns:xlink="http://www.w3.org/1999/xlink" width="16" height="16"><defs><style type="text/css"></style></defs><path d="M285.117 472.824h453.785c15.685 0 28.24-14.898 28.24-33.506s-12.555-33.507-28.24-33.507H285.117c-15.704 0-28.26 14.88-28.26 33.507s12.556 33.506 28.26 33.506z m0 269.854h453.785c15.685 0 28.24-14.898 28.24-33.507s-12.555-33.507-28.24-33.507H285.117c-15.704 0-28.26 14.898-28.26 33.507s12.556 33.507 28.26 33.507z" p-id="2590" fill="#535fda"></path><path d="M900.626 59.836h-30.92c-19.883 0-36.018 14.992-36.018 33.507 0 18.515 16.135 33.507 36.018 33.507h30.92c27.492 0 49.792 20.764 49.792 46.343v737.45c0 25.598-22.3 46.343-49.792 46.343H123.374c-27.51 0-49.81-20.745-49.81-46.343v-737.45c0-25.58 22.3-46.343 49.81-46.343h30.92c19.902 0 36.018-14.992 36.018-33.507 0-18.496-16.116-33.507-36.018-33.507h-30.92c-67.276 0-121.81 50.729-121.81 113.357v737.45c0 62.61 54.534 113.357 121.81 113.357h777.252c67.276 0 121.81-50.747 121.81-113.357v-737.45c0-62.628-54.534-113.357-121.81-113.357z" p-id="2591" fill="#535fda"></path><path d="M402.597 93.343c0 18.515 16.116 33.507 36.018 33.507h146.883c19.883 0 35.999-14.992 35.999-33.507 0-18.496-16.116-33.507-36-33.507H438.522c-19.902 0-35.924 15.01-35.924 33.507zM296.417 0c-18.515 0-33.507 13.736-33.507 30.696V155.99c0 16.96 14.992 30.696 33.507 30.696 18.496 0 33.507-13.736 33.507-30.696V30.696c0-16.96-15.01-30.696-33.507-30.696z m431.185 0c-18.515 0-33.507 13.736-33.507 30.696V155.99c0 16.96 14.992 30.696 33.507 30.696 18.496 0 33.506-13.736 33.506-30.696V30.696c0-16.96-15.01-30.696-33.506-30.696z" p-id="2592" fill="#535fda"></path></svg>