<?xml version="1.0" standalone="no"?><!DOCTYPE svg PUBLIC "-//W3C//DTD SVG 1.1//EN" "http://www.w3.org/Graphics/SVG/1.1/DTD/svg11.dtd"><svg t="1542016182666" class="icon" style="" viewBox="0 0 1024 1024" version="1.1" xmlns="http://www.w3.org/2000/svg" p-id="3755" xmlns:xlink="http://www.w3.org/1999/xlink" width="16" height="16"><defs><style type="text/css"></style></defs><path d="M511.824503 959.183785c-9.134031 0-18.092054-3.467985-25.12933-10.578939L380.563994 841.299935c-13.899568-14.024411-13.899568-36.533055 0-50.557466 13.875009-14.049994 36.134988-14.049994 50.008974 0l81.250512 82.099856 81.20344-82.099856c6.661723-6.737448 15.621792-10.580986 25.102724-10.580986l247.698428 0c19.564591 0 35.385928-15.97074 35.385928-35.786041L901.214001 172.119079c0-19.61371-15.821337-35.785018-35.385928-35.785018L158.168858 136.334062c-19.388583 0-35.384905 16.171308-35.384905 35.785018l0 572.256362c0 19.814278 15.996322 35.786041 35.384905 35.786041l106.156762 0c19.61371 0 35.384905 15.945157 35.384905 35.759435s-15.771195 35.759435-35.384905 35.759435L158.168858 851.680353C99.576391 851.680353 52.038702 803.619754 52.038702 744.375441L52.038702 172.119079c0-59.242266 47.537689-107.303888 106.131179-107.303888l707.659215 0c58.594513 0 106.132202 48.062646 106.132202 107.303888l0 572.256362c0 59.244312-47.537689 107.304911-106.132202 107.304911L632.60431 851.680353l-95.675036 96.924493C530.065959 955.516256 520.931928 959.183785 511.824503 959.183785L511.824503 959.183785zM511.824503 959.183785" p-id="3756" fill="#d5d5d5"></path><path d="M328.034617 495.031537c-27.674293 0-50.133817-22.659069-50.133817-50.583049s22.459524-50.584072 50.133817-50.584072 50.132794 22.660092 50.132794 50.584072S355.708909 495.031537 328.034617 495.031537L328.034617 495.031537zM328.034617 495.031537" p-id="3757" fill="#d5d5d5"></path><path d="M528.545326 495.031537c-27.700899 0-50.1594-22.659069-50.1594-50.583049s22.457478-50.584072 50.1594-50.584072c27.649733 0 50.108235 22.660092 50.108235 50.584072S556.194036 495.031537 528.545326 495.031537L528.545326 495.031537zM528.545326 495.031537" p-id="3758" fill="#d5d5d5"></path><path d="M729.203392 495.031537c-27.675316 0-50.133817-22.659069-50.133817-50.583049s22.458501-50.584072 50.133817-50.584072 50.133817 22.660092 50.133817 50.584072S756.67814 495.031537 729.203392 495.031537L729.203392 495.031537zM729.203392 495.031537" p-id="3759" fill="#d5d5d5"></path></svg>