<?xml version="1.0" standalone="no"?><!DOCTYPE svg PUBLIC "-//W3C//DTD SVG 1.1//EN" "http://www.w3.org/Graphics/SVG/1.1/DTD/svg11.dtd"><svg t="1542354682844" class="icon" style="" viewBox="0 0 1024 1024" version="1.1" xmlns="http://www.w3.org/2000/svg" p-id="2449" xmlns:xlink="http://www.w3.org/1999/xlink" width="32" height="32"><defs><style type="text/css"></style></defs><path d="M740.83736 947.106726c-53.29174 0-103.880929-20.196994-142.439106-56.867172l-1.877767-1.787716-0.035816 0.029676-1.972934-1.901303c-39.019689-38.977733-60.532655-90.863451-60.532655-146.051378v-181.679829c0-13.733792 11.186783-24.902156 24.932856-24.902156 13.775748 0 24.987091 11.169387 24.98709 24.902156v181.679829c0 41.890063 16.316617 81.255629 45.937239 110.840435l1.590218 1.619893c29.482475 28.556383 68.323085 44.25697 109.410875 44.25697 41.97909 0 81.423451-16.268522 111.061469-45.812395 29.584806-29.608342 45.877887-68.998467 45.877886-110.905926 0-41.321104-15.916505-80.304977-44.818764-109.781312l-1.064239-1.011027c-29.631878-29.596062-69.094658-45.924959-111.055328-45.924959h-62.015426c-13.775748 0-24.980951-11.19804-24.980951-24.962531 0-13.733792 11.205203-24.908296 24.980951-24.908296h62.015426c55.270814 0 107.216907 21.482267 146.278551 60.495816l1.387603 1.50733c38.193881 38.83447 59.193147 90.158393 59.193147 144.586002 0 55.115272-21.512966 106.953917-60.579727 145.973606-39.141462 39.07904-91.093694 60.604286-146.280598 60.604287z m-457.67779-0.00614c-54.499242 0-105.95824-21.028942-144.894018-59.216683l-1.204431-1.112334c-39.147602-39.07904-60.756759-91.049692-60.756759-146.247852 0-55.193043 21.512966-107.073644 60.573587-146.087193s91.010807-60.495816 146.278551-60.495816h181.931562c13.746072 0 24.932856 11.169387 24.935926 24.902157v181.679829c0 55.127552-21.512966 106.966197-60.576657 145.973606-39.136346 39.07904-91.088578 60.604286-146.287761 60.604286z m-0.00307-363.28905c-41.960671 0-81.378425 16.293081-110.999047 45.883003-29.617551 29.55513-45.931099 68.921719-45.931098 110.834294 0 41.901319 16.313547 81.267908 45.934168 110.834295l1.121544 1.190105c29.494755 28.842909 68.487837 44.687782 109.874433 44.687782 41.9883 0 81.431637-16.268522 111.064538-45.806256 29.584806-29.608342 45.877887-68.992327 45.877887-110.905926v-156.717297H283.1565z m275.755438-93.758384c-13.746072 0-24.929786-11.169387-24.929786-24.902156v-181.679829c0-55.202253 21.516036-107.082854 60.576657-146.084123 39.061644-39.010479 91.007737-60.493769 146.278551-60.49377 55.276954 0 107.223047 21.48329 146.278551 60.49377l2.475378 2.466168 1.321088 1.542122c36.615942 38.546921 56.783261 89.002057 56.783261 142.074809 0 55.121412-21.512966 106.962104-60.579727 145.975653-39.133276 39.08211-91.085508 60.607356-146.278551 60.607356H558.911938z m181.925422-363.300306c-41.955554 0-81.375356 16.293081-111.002116 45.877886-29.620621 29.581736-45.937239 68.945255-45.937239 110.840435v156.717297h156.939355c41.97909 0 81.417311-16.269545 111.061469-45.814442 29.584806-29.608342 45.877887-68.992327 45.877886-110.902855 0-41.238216-15.862269-80.167854-44.663222-109.617584l-1.321088-1.267876c-29.579689-29.53978-69.000514-45.832861-110.955045-45.832861z m-457.68086 363.300306c-53.342906 0-103.95563-20.221554-142.514831-56.94699l-2.0241-1.925862-0.032746 0.029676-1.74576-1.685386c-39.022759-38.980803-60.534701-90.861404-60.534701-146.054447 0-55.189973 21.512966-107.070574 60.573587-146.084123 39.058574-39.010479 91.007737-60.493769 146.278551-60.493769s107.223047 21.48329 146.283668 60.493769l1.420349 1.545193c38.176484 38.800701 59.160401 90.108251 59.160401 144.53893v181.679829c0 13.733792-11.183713 24.902156-24.932856 24.902157H283.1565z m0-363.300306c-41.952484 0-81.372286 16.293081-110.999047 45.874816-29.617551 29.575596-45.931099 68.939115-45.931098 110.843505 0 41.895179 16.310477 81.261769 45.931098 110.84555l1.590218 1.617847c29.482475 28.556383 68.320015 44.254923 109.407806 44.254924h156.941401V283.47219c0-41.315988-15.916505-80.304977-44.818765-109.793592l-1.076518-1.010003c-29.627784-29.583782-69.092611-45.915749-111.045095-45.915749z" fill="#189BFA" p-id="2450"></path><path d="M719.478402 586.960761c35.45244299 0 68.760037 13.805424 93.787036 38.868239 25.03314 25.067932 38.819121 58.428737 38.819121 93.930299 0 35.502585-13.787004 68.85929701-38.819121 93.926206l-1.033539 1.078565c-24.929786 24.379247-57.808614 37.78865099-92.75349701 37.788651-35.459606 0-68.790736-13.787004-93.83922499-38.808887-25.003464-25.090445-38.764885-58.464553-38.764886-93.985558L586.874291 586.960761l132.604111 0z m-418.188405-148.252509c-36.087916 0.466628-70.173223-13.149485-95.975888-38.33202699-25.809829-25.188682-40.282448-58.96495-40.749076-95.10198501s13.129019-70.273507 38.280861-96.118128l1.037633-1.11131c25.05565201-25.14468 58.346873-39.225373 93.915973-39.683815 36.09508-0.466628 70.203922 13.130042 96.030124 38.270629 25.780153 25.211195 40.22719 59.000765 40.693817 95.158266l1.744737 135.174656-134.978181 1.743714z" fill="#90F2FF" p-id="2451"></path></svg>