<?xml version="1.0" standalone="no"?><!DOCTYPE svg PUBLIC "-//W3C//DTD SVG 1.1//EN" "http://www.w3.org/Graphics/SVG/1.1/DTD/svg11.dtd"><svg t="1544596191808" class="icon" style="" viewBox="0 0 1024 1024" version="1.1" xmlns="http://www.w3.org/2000/svg" p-id="6703" xmlns:xlink="http://www.w3.org/1999/xlink" width="16" height="16"><defs><style type="text/css"></style></defs><path d="M843.944541 959.662007 174.161993 959.662007c-61.637694 0-111.611445-49.817964-111.611445-111.265253L62.550548 180.869011c0-61.448199 50.727174-116.531018 112.362135-116.531018l449.449452 0 0 55.992028L174.912683 120.330021c-30.847544 0-56.556868 29.816256-56.556868 60.538989l0 667.527744c0 30.725466 25.018762 55.648569 55.806178 55.648569l669.782548 0c30.850278 0 61.323388-25.58269 61.323388-56.308157L905.267929 400.107957l56.181523 0 0 447.630121C961.449452 909.187189 905.583146 959.662007 843.944541 959.662007zM482.278491 718.07089c-8.149181 8.120028-18.370961 12.162278-28.968085 14.231231L208.959772 852.691359c-27.525922 12.729851-49.533722-11.849794-39.375715-39.281879l120.763673-243.53526c2.069865-10.502377 6.145822-20.691359 14.295004-28.811388l434.150491-432.708327c21.82195-21.695317 57.121708-21.695317 78.942747 0l98.630149 98.348641c21.821039 21.726292 21.821039 56.965011 0 78.659416L482.278491 718.07089zM223.005153 779.769623c-6.331673 12.85284 5.956327 26.021808 19.689224 19.657338l150.923388-91.044897-79.255231-79.003786L223.005153 779.769623zM344.147815 580.375687l315.014833-313.948014 99.383573 97.627103L442.777053 678.724327C405.782776 641.824797 354.618306 590.848 344.147815 580.375687zM857.17637 226.360484l-59.191573-59.002989c-10.909609-10.847658-28.59274-10.847658-39.438577 0l-57.81227 57.622776 97.250847 99.728854 59.191573-59.0039C868.085068 254.826591 868.085068 237.238206 857.17637 226.360484z" p-id="6704" fill="#454545"></path></svg>