<?xml version="1.0" standalone="no"?><!DOCTYPE svg PUBLIC "-//W3C//DTD SVG 1.1//EN" "http://www.w3.org/Graphics/SVG/1.1/DTD/svg11.dtd"><svg t="1548826761249" class="icon" style="" viewBox="0 0 1024 1024" version="1.1" xmlns="http://www.w3.org/2000/svg" p-id="1172" xmlns:xlink="http://www.w3.org/1999/xlink" width="32" height="32"><defs><style type="text/css"></style></defs><path d="M512.572028 64.021106c-247.112074 0-447.435519 200.324468-447.435519 447.435519 0 247.112074 200.323445 447.435519 447.435519 447.435519 247.111051 0 447.435519-200.323445 447.435519-447.435519C960.00857 264.345574 759.683079 64.021106 512.572028 64.021106zM801.432948 389.292284 454.691783 736.010937c-8.739035 8.739035-20.186761 13.108552-31.635511 13.108552-11.447726 0-22.896476-4.369517-31.635511-13.108552L212.469066 557.080731c-17.47807-17.45658-17.47807-45.791929 0-63.269999 17.47807-17.47807 45.791929-17.47807 63.269999 0l147.317207 147.295718 315.105654-315.084165c17.47807-17.47807 45.791929-17.47807 63.269999 0C818.909995 343.500355 818.909995 371.814214 801.432948 389.292284z" p-id="1173" data-spm-anchor-id="a313x.7781069.0.i0" class="" fill="#439aff"></path></svg>