<?xml version="1.0" standalone="no"?><!DOCTYPE svg PUBLIC "-//W3C//DTD SVG 1.1//EN" "http://www.w3.org/Graphics/SVG/1.1/DTD/svg11.dtd"><svg t="1548827004883" class="icon" style="" viewBox="0 0 1024 1024" version="1.1" xmlns="http://www.w3.org/2000/svg" p-id="1615" xmlns:xlink="http://www.w3.org/1999/xlink" width="32" height="32"><defs><style type="text/css"></style></defs><path d="M510.669 1011.507c-67.482 0-132.915-13.21-194.56-39.219-59.494-25.19-112.947-61.133-158.822-107.008s-81.92-99.328-107.008-158.822C24.269 644.813 11.059 579.482 11.059 512s13.21-132.813 39.219-194.458c25.19-59.494 61.133-112.947 107.008-158.822S256.614 76.8 316.109 51.712c61.645-26.01 126.976-39.219 194.458-39.219 67.379 0 132.813 13.21 194.458 39.219 59.494 25.19 112.947 61.133 158.822 107.008s81.92 99.328 107.008 158.822c26.01 61.645 39.219 126.976 39.219 194.458s-13.21 132.813-39.322 194.458c-25.088 59.494-61.133 112.947-107.008 158.822-45.875 45.875-99.226 81.92-158.72 107.008C643.482 998.298 578.048 1011.507 510.669 1011.507L510.669 1011.507M510.566 55.91c-61.542 0-121.344 12.083-177.562 35.84-54.272 22.938-103.117 55.91-144.998 97.792s-74.752 90.624-97.792 144.998c-23.757 56.218-35.84 115.917-35.84 177.562 0 61.542 12.083 121.344 35.84 177.562 22.938 54.272 55.91 103.117 97.792 144.998s90.624 74.752 144.998 97.792c56.218 23.757 115.917 35.84 177.562 35.84l0.102 0 0 0c61.542 0 121.242-12.083 177.459-35.84 54.272-22.938 103.014-55.808 144.998-97.792s74.752-90.726 97.792-144.998c23.757-56.218 35.84-115.917 35.84-177.562 0-61.542-12.083-121.344-35.84-177.562-22.938-54.272-55.808-103.117-97.792-144.998-41.882-41.984-90.726-74.854-144.998-97.792C631.91 67.994 572.109 55.91 510.566 55.91z" p-id="1616" fill="#999999"></path></svg>