<?xml version="1.0" standalone="no"?><!DOCTYPE svg PUBLIC "-//W3C//DTD SVG 1.1//EN" "http://www.w3.org/Graphics/SVG/1.1/DTD/svg11.dtd"><svg t="1547431682603" class="icon" style="" viewBox="0 0 1024 1024" version="1.1" xmlns="http://www.w3.org/2000/svg" p-id="3945" data-spm-anchor-id="a313x.7781069.0.i10" xmlns:xlink="http://www.w3.org/1999/xlink" width="16" height="16"><defs><style type="text/css"></style></defs><path d="M511.68124 959.070198c-119.501698 0-231.786017-46.531779-316.297806-130.998543C110.849132 743.604892 64.385914 631.27657 64.385914 511.819898c0-119.503744 46.511313-231.786017 130.998543-316.297806C279.850198 110.986767 392.179542 64.478524 511.68124 64.478524c119.504768 0 231.786017 46.50722 316.299853 131.043568 84.555791 84.510766 130.993426 196.794062 130.993426 316.297806 0 119.501698-46.532803 231.784994-130.993426 316.251757C743.514329 912.538419 631.187031 959.070198 511.68124 959.070198zM511.68124 111.562888c-220.682122 0-400.208914 179.529863-400.208914 400.210961 0 220.706681 179.526793 400.214031 400.208914 400.214031 220.702588 0 400.208914-179.50735 400.208914-400.214031C911.890154 291.092751 732.383828 111.562888 511.68124 111.562888z" p-id="3946" data-spm-anchor-id="a313x.7781069.0.i11" class="" fill="#8f1e8f"></path><path d="M417.51558 700.110285c-6.025227 0-12.047384-2.301416-16.667611-6.89913L259.597945 551.960107c-9.172917-9.148357-9.172917-24.093744 0-33.290197 9.169847-9.147334 24.115234-9.147334 33.288151 0l124.583436 124.606972 312.89429-312.916802c9.194406-9.171893 24.139793-9.171893 33.288151 0 9.196453 9.171893 9.196453 24.11728 0 33.290197L434.089048 693.211155c-4.618181 4.644787-10.642384 6.89913-16.665565 6.89913L417.51558 700.110285z" p-id="3947" data-spm-anchor-id="a313x.7781069.0.i12" class="" fill="8f1e8f"></path></svg>