<?xml version="1.0" standalone="no"?><!DOCTYPE svg PUBLIC "-//W3C//DTD SVG 1.1//EN" "http://www.w3.org/Graphics/SVG/1.1/DTD/svg11.dtd"><svg t="1541567561054" class="icon" style="" viewBox="0 0 1024 1024" version="1.1" xmlns="http://www.w3.org/2000/svg" p-id="1830" xmlns:xlink="http://www.w3.org/1999/xlink" width="16" height="16"><defs><style type="text/css"></style></defs><path d="M880.718561 1024H136.135615C60.724762 1024 0.39608 962.877519 0.39608 888.260465V142.883721C0.39608 68.266667 60.724762 7.937984 136.135615 7.937984H627.496855c9.525581 0 16.669767 7.937984 16.669768 16.669768v34.133333c0 9.525581-7.937984 16.669767-16.669768 16.669768H169.47515c-56.35969 0-101.606202 45.246512-101.606202 101.606201v677.110078c0 56.35969 45.246512 101.606202 101.606202 101.606201h677.110077c56.35969 0 101.606202-45.246512 101.606202-101.606201V396.899225c0-9.525581 7.937984-16.669767 16.669767-16.669768h34.133334c9.525581 0 16.669767 7.937984 16.669767 16.669768v491.36124c0.793798 74.617054-59.534884 135.739535-134.945736 135.739535z m60.328682-806.499225l-140.502326-132.564341 42.865116-42.865116c33.339535-33.339535 87.317829-34.133333 121.451163-1.587597l17.463566 16.669767c34.133333 31.751938 34.927132 84.936434 1.587597 118.275969l-42.865116 42.071318zM270.287553 616.781395l140.502325 132.564341-207.181395 70.648062L270.287553 616.781395z m635.832558-365.147286L444.923212 715.212403 304.420886 582.648062 765.617785 119.069767l140.502326 132.564342z m0 0" p-id="1831" fill="#535fda"></path></svg>