<?xml version="1.0" standalone="no"?><!DOCTYPE svg PUBLIC "-//W3C//DTD SVG 1.1//EN" "http://www.w3.org/Graphics/SVG/1.1/DTD/svg11.dtd"><svg t="1542857102350" class="icon" style="" viewBox="0 0 1024 1024" version="1.1" xmlns="http://www.w3.org/2000/svg" p-id="3276" xmlns:xlink="http://www.w3.org/1999/xlink" width="32" height="32"><defs><style type="text/css"></style></defs><path d="M936.2508600796177 410.9003582999176h-270.6830966356982c104.88753969757875-387.37266443663384-72.26699796302074-407.1574008457891-72.26699796302074-407.1574008457891-75.0839623385957 0-59.51917367779203 59.37306230750286-65.19709294902898 69.27250041709446 0 189.4420325749172-201.21578105821823 337.88647151869765-201.21578105821823 337.88647151869765v537.2279422032066c0 53.03057196495071 72.26699796302074 72.12874204274712 100.6157459791246 72.12874204274712h406.7017847448873c38.27646574575144 0 69.44532031743647-100.38008247865825 69.44532031743647-100.38008247865825 100.61731706912775-342.1362699771083 100.61731706912775-443.9334756385711 100.61731706912775-443.9334756385711 0.0015710900031092822-70.68805250989593-68.01719950461015-65.03998394871806-68.01719950461015-65.03998394871806v0 0zM936.2508600796177 410.9003582999176z" fill="#f00" p-id="3277"></path><path d="M215.8055438938133 411.077891470269h-162.08464235077525c-33.473643606246355 0-33.99053221726932 32.878200495067944-33.99053221726932 32.878200495067944l33.473643606246355 541.8123828322794c0 34.48542556824874 34.543555898363785 34.48542556824874 34.543555898363785 34.48542556824874h140.2841974676309c29.22541623783886 0 28.966186387325827-22.81222684514677 28.966186387325827-22.81222684514677v-545.2766362891354c0-41.61188982235244-41.19555097152849-41.08557467131084-41.19555097152849-41.08557467131084v0 0zM215.8055438938133 411.077891470269z" fill="#f00" p-id="3278"></path></svg>