<?xml version="1.0" standalone="no"?><!DOCTYPE svg PUBLIC "-//W3C//DTD SVG 1.1//EN" "http://www.w3.org/Graphics/SVG/1.1/DTD/svg11.dtd"><svg t="1542167623149" class="icon" style="" viewBox="0 0 1024 1024" version="1.1" xmlns="http://www.w3.org/2000/svg" p-id="2440" xmlns:xlink="http://www.w3.org/1999/xlink" width="32" height="32"><defs><style type="text/css"></style></defs><path d="M1012.580864 550.5024 852.632064 748.9536C834.865664 770.9696 802.660864 774.4 780.644864 756.6336 758.680064 738.8672 755.198464 706.6624 772.964864 684.6464L870.859264 563.2 409.854464 563.2C381.643264 563.2 358.705664 540.2624 358.705664 512 358.705664 483.7376 381.643264 460.8 409.854464 460.8L849.201664 460.8 756.427264 367.9232C736.408064 347.9552 736.408064 315.4944 756.427264 295.5264 776.395264 275.5072 808.753664 275.5072 828.772864 295.5264L1008.894464 475.8016C1013.604864 480.512 1017.342464 486.144 1019.953664 492.4416 1022.820864 499.3024 1023.793664 506.624 1023.486464 513.9968 1024.612864 526.6944 1021.182464 539.8016 1012.580864 550.5024ZM665.700864 204.8C637.438464 204.8 614.552064 181.8624 614.552064 153.6L614.552064 102.4 102.859264 102.4 102.859264 921.6 614.552064 921.6 614.552064 870.4C614.552064 842.1376 637.438464 819.2 665.700864 819.2 693.963264 819.2 716.900864 842.1376 716.900864 870.4L716.900864 921.6C716.900864 978.176 671.076864 1024 614.552064 1024L102.859264 1024C46.334464 1024 0.510464 978.176 0.510464 921.6L0.510464 102.4C0.510464 45.824 46.334464 0 102.859264 0L614.552064 0C671.076864 0 716.900864 45.824 716.900864 102.4L716.900864 153.6C716.900864 181.8624 693.963264 204.8 665.700864 204.8Z" p-id="2441" fill="#fff"></path></svg>