<?xml version="1.0" standalone="no"?><!DOCTYPE svg PUBLIC "-//W3C//DTD SVG 1.1//EN" "http://www.w3.org/Graphics/SVG/1.1/DTD/svg11.dtd"><svg t="1542180240601" class="icon" style="" viewBox="0 0 1024 1024" version="1.1" xmlns="http://www.w3.org/2000/svg" p-id="4046" xmlns:xlink="http://www.w3.org/1999/xlink" width="32" height="32"><defs><style type="text/css"></style></defs><path d="M512.031 960.058c246.872 0 447.737-200.865 447.737-447.737S758.903 64.584 512.031 64.584 64.294 265.449 64.294 512.321 265.159 960.058 512.031 960.058zM512.031 120.55c216.033 0 391.77 175.737 391.77 391.77s-175.737 391.77-391.77 391.77-391.77-175.737-391.77-391.77S295.997 120.55 512.031 120.55zM512.031 239.48c89.24 0 161.605 71.751 161.605 160.291 0 88.513-72.337 160.262-161.605 160.262s-161.577-71.751-161.577-160.262C350.454 311.232 422.791 239.48 512.031 239.48zM512.031 514.223c63.747 0 115.433-51.266 115.432-114.48 0-63.243-51.684-114.48-115.432-114.48s-115.433 51.266-115.432 114.48C396.599 462.985 448.283 514.223 512.031 514.223zM512.031 514.223c127.521 0 230.863 102.504 230.863 228.962-16.037 0-31.257 0-46.173 0 0-101.131-82.691-183.151-184.691-183.151s-184.691 82.02-184.691 183.151c-14.888 0-30.139 0-46.173 0 0-126.457 103.344-228.962 230.863-228.962L512.031 514.223z" p-id="4047" fill="#ffffff"></path></svg>