<?xml version="1.0" standalone="no"?><!DOCTYPE svg PUBLIC "-//W3C//DTD SVG 1.1//EN" "http://www.w3.org/Graphics/SVG/1.1/DTD/svg11.dtd"><svg t="1542016067118" class="icon" style="" viewBox="0 0 1024 1024" version="1.1" xmlns="http://www.w3.org/2000/svg" p-id="1827" xmlns:xlink="http://www.w3.org/1999/xlink" width="16" height="16"><defs><style type="text/css"></style></defs><path d="M960 499.2v-12.8-6.4C870.4 307.2 691.2 192 512 192S153.6 307.2 70.4 486.4v12.8C64 505.6 64 512 64 512v25.6C153.6 716.8 332.8 832 512 832s358.4-115.2 441.6-294.4v-6.4-6.4V512c6.4-6.4 6.4-6.4 6.4-12.8z m-57.6 12.8s0 6.4 0 0c-76.8 153.6-230.4 262.4-390.4 262.4-160 0-313.6-102.4-384-256 76.8-153.6 230.4-256 390.4-256 153.6-12.8 307.2 89.6 384 249.6z" p-id="1828" fill="#fff"></path><path d="M512 364.8c-83.2 0-147.2 64-147.2 147.2 0 83.2 64 147.2 147.2 147.2s147.2-64 147.2-147.2c0-83.2-64-147.2-147.2-147.2z m0 236.8c-51.2 0-89.6-38.4-89.6-89.6 0-51.2 38.4-89.6 89.6-89.6 51.2 0 89.6 38.4 89.6 89.6 0 51.2-38.4 89.6-89.6 89.6z" p-id="1829" fill="#fff"></path></svg>