<?xml version="1.0" standalone="no"?><!DOCTYPE svg PUBLIC "-//W3C//DTD SVG 1.1//EN" "http://www.w3.org/Graphics/SVG/1.1/DTD/svg11.dtd"><svg t="1542357369871" class="icon" style="" viewBox="0 0 1024 1024" version="1.1" xmlns="http://www.w3.org/2000/svg" p-id="5062" xmlns:xlink="http://www.w3.org/1999/xlink" width="32" height="32"><defs><style type="text/css"></style></defs><path d="M803.3792 372.35712c-54.8352 0-103.64928-24.064-137.76896-61.67552L500.19328 420.74112c14.67392 31.36512 23.47008 65.9968 23.47008 102.90176 0 34.22208-7.15776 66.73408-19.87584 96.29696l73.37984 73.37984c38.22592-66.32448 109.1072-111.50336 191.25248-111.50336 122.30656 0 221.45024 98.99008 221.45024 221.09184S890.71616 1024 768.41984 1024s-221.45024-98.97984-221.45024-221.09184c0-13.74208 1.64864-27.06432 4.0448-40.11008l-81.84832-87.18336C424.30464 731.50464 356.20864 768 278.89664 768 143.7184 768 34.12992 658.59584 34.12992 523.64288c0-134.9632 109.57824-244.36736 244.75648-244.36736 73.66656 0 138.94656 33.16736 183.81824 84.57216l167.00416-111.104c-7.97696-20.72576-12.82048-43.02848-12.82048-66.56C616.89856 83.3536 700.38528 0 803.3792 0c102.99392 0 186.48064 83.3536 186.48064 186.18368S906.37312 372.35712 803.3792 372.35712z" p-id="5063" fill="#ffffff"></path></svg>